# xmcd
#
# Track frame offsets:
#	150
#	14289
#	31852
#	45385
#	56650
#	71450
#	86294
#	101493
#	117313
#	134217
#	146328
#	162388
#	176552
#	194447
#	214555
#
# Disc length: 3270 seconds
#
# Revision: 0
# Processed by: cddbd v1.4PL0 Copyright (c) Steve Scherf et al.
# Submitted via: EasyCDDAExtractor 4.6.0.1
#
DISCID=cc0cc40f
DTITLE=Stop The Truck - The Two Step Program
DYEAR=1999
DGENRE=Country
TTITLE0=Foolproof
TTITLE1=The Two Step Program
TTITLE2=All Hanky No Panky
TTITLE3=Red Neck Level
TTITLE4=No Fences
TTITLE5=Nuthin But A Hillbilly
TTITLE6=Silky Sue
TTITLE7=Bird On A Wire
TTITLE8=Mother of My Teardrops
TTITLE9=Georgia Moon
TTITLE10=Lets See If He Can Ride
TTITLE11=Like It or Not
TTITLE12=Tex Avery Song
TTITLE13=One of Your Lies
TTITLE14=Love Wig
EXTD=
EXTT0=
EXTT1=
EXTT2=
EXTT3=
EXTT4=
EXTT5=
EXTT6=
EXTT7=
EXTT8=
EXTT9=
EXTT10=
EXTT11=
EXTT12=
EXTT13=
EXTT14=
PLAYORDER=
